<?xml version="1.0" standalone="no"?>
<!DOCTYPE svg PUBLIC "-//W3C//DTD SVG 20010904//EN"
 "http://www.w3.org/TR/2001/REC-SVG-20010904/DTD/svg10.dtd">
<svg version="1.0" xmlns="http://www.w3.org/2000/svg"
 width="250.000000pt" height="250.000000pt" viewBox="0 0 250.000000 250.000000"
 preserveAspectRatio="xMidYMid meet">

<g transform="translate(0.000000,250.000000) scale(0.100000,-0.100000)"
fill="#078edb" stroke="none">
<path d="M140 2360 c-18 -18 -20 -33 -20 -164 0 -144 0 -145 26 -165 27 -21
29 -21 1104 -21 1075 0 1077 0 1104 21 26 20 26 21 26 165 0 131 -2 146 -20
164 -20 20 -33 20 -1110 20 -1077 0 -1090 0 -1110 -20z"/>
<path d="M160 1713 c-40 -14 -40 -8 -40 -795 0 -745 0 -758 20 -778 19 -19 33
-20 258 -20 130 0 242 4 248 8 33 22 34 48 34 797 l0 746 -25 24 -24 25 -228
-1 c-125 0 -235 -3 -243 -6z"/>
<path d="M995 1695 l-25 -24 0 -661 c0 -647 0 -660 20 -680 19 -19 33 -20 260
-20 227 0 241 1 260 20 20 20 20 33 20 680 l0 661 -25 24 -24 25 -231 0 -231
0 -24 -25z"/>
<path d="M1845 1696 l-25 -25 0 -556 c0 -556 2 -586 34 -607 6 -4 118 -8 249
-8 224 0 238 1 257 20 20 20 20 33 20 588 0 475 -2 571 -14 588 -13 18 -30 19
-255 22 l-241 3 -25 -25z"/>
</g>
</svg>
